# xmcd
#
# Track frame offsets:
#	150
#	11235
#	22776
#	34633
#	46875
#	56067
#	66934
#	78329
#	90059
#	102769
#	114073
#	126916
#	136835
#	147759
#	162563
#	175529
#	185361
#	197661
#	212516
#	222857
#	235205
#	246618
#	256771
#	269160
#
# Disc length: 3751
#
# Revision: 1
# Processed by: cddbd v1.5.1PL0 Copyright (c) Steve Scherf et al.
# Submitted via: dBpowerAMP V4.0
# Normalized: r0:DSETVAR1,TDELIM( - )
#
DISCID=450ea518
DTITLE=Various Artist - 50 Golden Country Hits
DYEAR=1900
DGENRE=
TTITLE0=Jim Reeves - He'll have to go
TTITLE1=Freddy Fender - Before the next teardrops falls
TTITLE2=Tennessee Ernie Ford - Sixteen tons
TTITLE3=Johnny Cash - I walk the line
TTITLE4=Frankie Lane - Rawhide
TTITLE5=Conway Twitty - Mona Lisa
TTITLE6=Sonny James - Young love
TTITLE7=The Everly Brothers - Let it be me
TTITLE8=Elvis Presley - Don't
TTITLE9=Patsy Cline - Just out of reach
TTITLE10=Johnny Horton - North to Alaska
TTITLE11=Hank Locklin - Please help me I'm falling
TTITLE12=Bill Hayes - The ballad of Davy Crockett
TTITLE13=Johnny Burnette - The ballad of teh One Eyed Jacks
TTITLE14=Kenny Rogers - Ruby, don't take your love to town
TTITLE15=Johhny Cash - Ballad of A Teenage Queen
TTITLE16=Freddy Fender - Wasted days and wasted nights
TTITLE17=The Kingston Trio - Tom Dooley
TTITLE18=Wanda jackson - It's only make believe
TTITLE19=Jerry Lee Lewis - Crazy arms
TTITLE20=Marty Robbins - A white sports coat (and a pink carnation)
TTITLE21=Elvis Presley - Wear my ring around your neck
TTITLE22=Kenny Rogers - Ruben James
TTITLE23=Hank Locklin - Send me the pillow that you dream on
EXTD=
EXTT0=
EXTT1=
EXTT2=
EXTT3=
EXTT4=
EXTT5=
EXTT6=
EXTT7=
EXTT8=
EXTT9=
EXTT10=
EXTT11=
EXTT12=
EXTT13=
EXTT14=
EXTT15=
EXTT16=
EXTT17=
EXTT18=
EXTT19=
EXTT20=
EXTT21=
EXTT22=
EXTT23=
PLAYORDER=
